<svg width="428" height="90" viewBox="0 0 428 90" fill="none" xmlns="http://www.w3.org/2000/svg">
<path d="M122 29.6V60.1C122 72.8 115.5 79.1 102.6 79.1C99.1 79.1 95.9 78.7 92.8 77.8C89.7 76.9 87.1 75.7 85.1 74L88.9 67.7C90.5 69 92.5 70 94.9 70.8C97.3 71.6 99.7 72 102.2 72C106.1 72 109 71.1 110.9 69.3C112.7 67.5 113.7 64.8 113.7 61.1V59.2C112.3 60.8 110.5 62 108.5 62.8C106.4 63.6 104.2 64 101.7 64C98.3 64 95.2 63.3 92.4 61.8C89.6 60.3 87.5 58.3 85.9 55.6C84.3 53 83.5 49.9 83.5 46.5C83.5 43.1 84.3 40.1 85.9 37.4C87.5 34.8 89.7 32.7 92.4 31.3C95.2 29.9 98.2 29.1 101.7 29.1C104.3 29.1 106.7 29.5 108.8 30.4C110.9 31.3 112.7 32.6 114.2 34.3V29.5H122V29.6ZM110.6 53.9C112.6 52 113.7 49.5 113.7 46.5C113.7 43.5 112.7 41 110.6 39.2C108.6 37.3 105.9 36.4 102.8 36.4C99.6 36.4 96.9 37.3 94.9 39.2C92.9 41.1 91.8 43.5 91.8 46.5C91.8 49.6 92.8 52 94.9 53.9C96.9 55.8 99.6 56.8 102.8 56.8C106 56.8 108.6 55.9 110.6 53.9Z" fill="#F2F2F1"/>
<path d="M166.7 50.3H138.5C139 52.9 140.3 55 142.4 56.6C144.5 58.1 147.1 58.9 150.2 58.9C154.1 58.9 157.4 57.6 160 55L164.5 60.2C162.9 62.1 160.8 63.6 158.4 64.6C155.9 65.6 153.1 66.1 150.1 66.1C146.2 66.1 142.7 65.3 139.7 63.7C136.7 62.1 134.4 59.9 132.7 57.1C131.1 54.3 130.2 51.1 130.2 47.6C130.2 44.1 131 40.9 132.6 38.1C134.2 35.3 136.4 33.1 139.2 31.5C142 29.9 145.2 29.1 148.8 29.1C152.3 29.1 155.4 29.9 158.2 31.4C161 32.9 163.1 35.1 164.7 37.9C166.2 40.7 167 43.9 167 47.6C166.8 48.4 166.7 49.2 166.7 50.3ZM141.8 38.3C139.9 39.9 138.8 42 138.4 44.7H158.8C158.4 42.1 157.3 40 155.5 38.4C153.7 36.8 151.4 36 148.6 36C145.9 35.9 143.6 36.7 141.8 38.3Z" fill="#F2F2F1"/>
<path d="M183.4 63.7C180.5 62.1 178.2 59.8999 176.6 57.0999C175 54.2999 174.1 51.0999 174.1 47.5999C174.1 44.0999 174.9 40.8999 176.6 38.0999C178.2 35.2999 180.5 33.1 183.4 31.6C186.3 30 189.6 29.2 193.2 29.2C196.9 29.2 200.2 30 203.1 31.6C206 33.2 208.3 35.2999 209.9 38.0999C211.5 40.8999 212.4 43.9999 212.4 47.5999C212.4 51.0999 211.6 54.2999 209.9 57.0999C208.3 59.8999 206 62.1 203.1 63.7C200.2 65.2999 196.9 66.0999 193.2 66.0999C189.6 66 186.3 65.2 183.4 63.7ZM200.9 55.7C202.9 53.6 203.9 50.8999 203.9 47.5999C203.9 44.2999 202.9 41.5 200.9 39.5C198.9 37.4 196.3 36.4 193.2 36.4C190.1 36.4 187.6 37.4 185.6 39.5C183.6 41.6 182.6 44.2999 182.6 47.5999C182.6 50.8999 183.6 53.7 185.6 55.7C187.6 57.8 190.1 58.7999 193.2 58.7999C196.3 58.7999 198.9 57.8 200.9 55.7Z" fill="#F2F2F1"/>
<path d="M65.4 40.7L63.4 35.5L44.1 42.9L59 12L54.1 9.59998L39.5 39.7L34.8 19.4L29.4 20.7L34.1 40.8L16.9 27L13.4 31.4L33.2 47.1L3.60001 58.5L5.60001 63.7L33.1 53.1L25.2 69.4L30.2 71.8L37.7 56.2L44.5 85.1L49.8 83.8L43.1 55.1L59.4 68.2L62.9 63.8L44.1 48.8L65.4 40.7Z" fill="#F2F2F1"/>
<path d="M227.73 47.01C227.73 49.0633 228.01 51.0233 228.57 52.89C229.13 54.71 229.923 56.32 230.95 57.72C232.023 59.0733 233.307 60.17 234.8 61.01C236.34 61.8033 238.067 62.2 239.98 62.2C242.127 62.2 243.993 61.78 245.58 60.94C247.213 60.0533 248.543 58.8633 249.57 57.37C250.597 55.8767 251.343 54.15 251.81 52.19C252.277 50.1833 252.463 48.0367 252.37 45.75C252.37 43.4633 252.043 41.4567 251.39 39.73C250.783 37.9567 249.92 36.4633 248.8 35.25C247.68 34.0367 246.373 33.1267 244.88 32.52C243.387 31.8667 241.753 31.54 239.98 31.54C238.02 31.54 236.27 31.9367 234.73 32.73C233.19 33.5233 231.907 34.62 230.88 36.02C229.853 37.3733 229.06 39.0067 228.5 40.92C227.987 42.7867 227.73 44.8167 227.73 47.01ZM227.73 79.28H223.53V28.74H227.73V35.11H227.87C228.477 33.9433 229.247 32.8933 230.18 31.96C231.16 31.0267 232.21 30.2567 233.33 29.65C234.497 29.0433 235.687 28.5767 236.9 28.25C238.113 27.9233 239.303 27.76 240.47 27.76C243.41 27.76 245.907 28.25 247.96 29.23C250.013 30.21 251.693 31.5633 253 33.29C254.353 34.97 255.333 36.9767 255.94 39.31C256.547 41.6433 256.85 44.14 256.85 46.8C256.85 49.32 256.523 51.7467 255.87 54.08C255.217 56.4133 254.213 58.4667 252.86 60.24C251.553 61.9667 249.873 63.3667 247.82 64.44C245.813 65.4667 243.433 65.98 240.68 65.98C238.113 65.98 235.64 65.42 233.26 64.3C230.927 63.1333 229.083 61.43 227.73 59.19V79.28ZM294.883 44.35C294.883 42.5767 294.626 40.92 294.113 39.38C293.646 37.7933 292.923 36.44 291.943 35.32C291.01 34.1533 289.82 33.2433 288.373 32.59C286.926 31.89 285.27 31.54 283.403 31.54C281.536 31.54 279.88 31.89 278.433 32.59C277.033 33.29 275.82 34.2233 274.793 35.39C273.813 36.5567 273.02 37.91 272.413 39.45C271.806 40.99 271.41 42.6233 271.223 44.35H294.883ZM271.223 47.85C271.223 49.81 271.48 51.6767 271.993 53.45C272.506 55.1767 273.253 56.6933 274.233 58C275.26 59.26 276.543 60.2867 278.083 61.08C279.623 61.8267 281.396 62.2 283.403 62.2C286.156 62.2 288.513 61.4767 290.473 60.03C292.433 58.5833 293.74 56.53 294.393 53.87H299.083C298.57 55.5967 297.893 57.2067 297.053 58.7C296.213 60.1467 295.163 61.43 293.903 62.55C292.643 63.6233 291.15 64.4633 289.423 65.07C287.696 65.6767 285.69 65.98 283.403 65.98C280.51 65.98 278.013 65.49 275.913 64.51C273.813 63.53 272.086 62.2 270.733 60.52C269.38 58.7933 268.376 56.7867 267.723 54.5C267.07 52.1667 266.743 49.67 266.743 47.01C266.743 44.35 267.116 41.8533 267.863 39.52C268.656 37.1867 269.753 35.1567 271.153 33.43C272.6 31.6567 274.35 30.28 276.403 29.3C278.456 28.2733 280.79 27.76 283.403 27.76C288.396 27.76 292.316 29.4867 295.163 32.94C298.01 36.3467 299.41 41.3167 299.363 47.85H271.223ZM336.579 44.35C336.579 42.5767 336.323 40.92 335.809 39.38C335.343 37.7933 334.619 36.44 333.639 35.32C332.706 34.1533 331.516 33.2433 330.069 32.59C328.623 31.89 326.966 31.54 325.099 31.54C323.233 31.54 321.576 31.89 320.129 32.59C318.729 33.29 317.516 34.2233 316.489 35.39C315.509 36.5567 314.716 37.91 314.109 39.45C313.503 40.99 313.106 42.6233 312.919 44.35H336.579ZM312.919 47.85C312.919 49.81 313.176 51.6767 313.689 53.45C314.203 55.1767 314.949 56.6933 315.929 58C316.956 59.26 318.239 60.2867 319.779 61.08C321.319 61.8267 323.093 62.2 325.099 62.2C327.853 62.2 330.209 61.4767 332.169 60.03C334.129 58.5833 335.436 56.53 336.089 53.87H340.779C340.266 55.5967 339.589 57.2067 338.749 58.7C337.909 60.1467 336.859 61.43 335.599 62.55C334.339 63.6233 332.846 64.4633 331.119 65.07C329.393 65.6767 327.386 65.98 325.099 65.98C322.206 65.98 319.709 65.49 317.609 64.51C315.509 63.53 313.783 62.2 312.429 60.52C311.076 58.7933 310.073 56.7867 309.419 54.5C308.766 52.1667 308.439 49.67 308.439 47.01C308.439 44.35 308.813 41.8533 309.559 39.52C310.353 37.1867 311.449 35.1567 312.849 33.43C314.296 31.6567 316.046 30.28 318.099 29.3C320.153 28.2733 322.486 27.76 325.099 27.76C330.093 27.76 334.013 29.4867 336.859 32.94C339.706 36.3467 341.106 41.3167 341.059 47.85H312.919ZM356.716 47.01C356.716 49.0633 356.996 51.0233 357.556 52.89C358.116 54.71 358.909 56.32 359.936 57.72C361.009 59.0733 362.293 60.17 363.786 61.01C365.326 61.8033 367.053 62.2 368.966 62.2C371.113 62.2 372.979 61.78 374.566 60.94C376.199 60.0533 377.529 58.8633 378.556 57.37C379.583 55.8767 380.329 54.15 380.796 52.19C381.263 50.1833 381.449 48.0367 381.356 45.75C381.356 43.4633 381.029 41.4567 380.376 39.73C379.769 37.9567 378.906 36.4633 377.786 35.25C376.666 34.0367 375.359 33.1267 373.866 32.52C372.373 31.8667 370.739 31.54 368.966 31.54C367.006 31.54 365.256 31.9367 363.716 32.73C362.176 33.5233 360.893 34.62 359.866 36.02C358.839 37.3733 358.046 39.0067 357.486 40.92C356.973 42.7867 356.716 44.8167 356.716 47.01ZM356.716 79.28H352.516V28.74H356.716V35.11H356.856C357.463 33.9433 358.233 32.8933 359.166 31.96C360.146 31.0267 361.196 30.2567 362.316 29.65C363.483 29.0433 364.673 28.5767 365.886 28.25C367.099 27.9233 368.289 27.76 369.456 27.76C372.396 27.76 374.893 28.25 376.946 29.23C378.999 30.21 380.679 31.5633 381.986 33.29C383.339 34.97 384.319 36.9767 384.926 39.31C385.533 41.6433 385.836 44.14 385.836 46.8C385.836 49.32 385.509 51.7467 384.856 54.08C384.203 56.4133 383.199 58.4667 381.846 60.24C380.539 61.9667 378.859 63.3667 376.806 64.44C374.799 65.4667 372.419 65.98 369.666 65.98C367.099 65.98 364.626 65.42 362.246 64.3C359.913 63.1333 358.069 61.43 356.716 59.19V79.28ZM400.069 53.66C400.722 56.7867 401.889 59.0033 403.569 60.31C405.296 61.57 407.746 62.2 410.919 62.2C412.459 62.2 413.789 62.0133 414.909 61.64C416.029 61.2667 416.939 60.7767 417.639 60.17C418.386 59.5167 418.946 58.7933 419.319 58C419.692 57.2067 419.879 56.3667 419.879 55.48C419.879 53.7067 419.296 52.4 418.129 51.56C417.009 50.6733 415.586 49.9967 413.859 49.53C412.132 49.0167 410.266 48.5967 408.259 48.27C406.252 47.8967 404.386 47.36 402.659 46.66C400.932 45.96 399.486 44.9567 398.319 43.65C397.199 42.3433 396.639 40.5 396.639 38.12C396.639 35.0867 397.736 32.6133 399.929 30.7C402.169 28.74 405.319 27.76 409.379 27.76C413.299 27.76 416.472 28.6467 418.899 30.42C421.372 32.1467 422.866 35.0633 423.379 39.17H419.109C418.736 36.37 417.662 34.41 415.889 33.29C414.162 32.1233 411.969 31.54 409.309 31.54C406.649 31.54 404.619 32.1233 403.219 33.29C401.819 34.41 401.119 35.9033 401.119 37.77C401.119 39.4033 401.679 40.6633 402.799 41.55C403.966 42.39 405.412 43.09 407.139 43.65C408.866 44.1633 410.732 44.63 412.739 45.05C414.746 45.47 416.612 46.0767 418.339 46.87C420.066 47.6167 421.489 48.6433 422.609 49.95C423.776 51.2567 424.359 53.0767 424.359 55.41C424.359 57.1367 423.986 58.6767 423.239 60.03C422.492 61.3367 421.466 62.4333 420.159 63.32C418.852 64.2067 417.289 64.86 415.469 65.28C413.696 65.7467 411.736 65.98 409.589 65.98C407.442 65.98 405.529 65.6533 403.849 65C402.216 64.3933 400.816 63.53 399.649 62.41C398.482 61.29 397.572 59.9833 396.919 58.49C396.266 56.9967 395.892 55.3867 395.799 53.66H400.069Z" fill="#F2F2F1"/>
</svg>
